<svg width="16" height="16" viewBox="0 0 16 16" fill="none" xmlns="http://www.w3.org/2000/svg">
<path d="M3.66536 1.33301C4.72237 1.33301 5.61522 2.03584 5.90207 2.99967H9.16536C10.7302 2.99967 11.9987 4.2682 11.9987 5.83301C11.9987 7.39781 10.7302 8.66634 9.16536 8.66634H6.83203C6.0036 8.66634 5.33203 9.33791 5.33203 10.1663C5.33203 10.9948 6.0036 11.6663 6.83203 11.6663H10.9987V10.5901C10.9987 10.3307 11.2821 10.1707 11.5043 10.3048L14.5093 12.1181C14.7279 12.2501 14.7231 12.5687 14.5007 12.694L11.4956 14.3865C11.2734 14.5116 10.9987 14.3511 10.9987 14.096V12.9997H6.83203C5.26722 12.9997 3.9987 11.7311 3.9987 10.1663C3.9987 8.60153 5.26722 7.33301 6.83203 7.33301H9.16536C9.99379 7.33301 10.6654 6.66143 10.6654 5.83301C10.6654 5.00458 9.99379 4.33301 9.16536 4.33301H5.90207C5.61522 5.29684 4.72237 5.99967 3.66536 5.99967C2.3767 5.99967 1.33203 4.95501 1.33203 3.66634C1.33203 2.37768 2.3767 1.33301 3.66536 1.33301ZM3.66536 4.66634C4.21765 4.66634 4.66536 4.21863 4.66536 3.66634C4.66536 3.11406 4.21765 2.66634 3.66536 2.66634C3.11308 2.66634 2.66536 3.11406 2.66536 3.66634C2.66536 4.21863 3.11308 4.66634 3.66536 4.66634Z" fill="#646A73"/>
</svg>
