<svg width="16" height="16" viewBox="0 0 16 16" fill="none" xmlns="http://www.w3.org/2000/svg">
<path d="M9.3342 3.33346C8.96601 3.33346 8.66753 3.63194 8.66753 4.00013C8.66753 4.36832 8.96601 4.66679 9.3342 4.66679H14.6675C15.0357 4.66679 15.3342 4.36832 15.3342 4.00013C15.3342 3.63194 15.0357 3.33346 14.6675 3.33346H9.3342Z" fill="#646A73"/>
<path d="M10.0009 8.00013C10.0009 7.63194 10.2993 7.33346 10.6675 7.33346H14.6675C15.0357 7.33346 15.3342 7.63194 15.3342 8.00013C15.3342 8.36831 15.0357 8.66679 14.6675 8.66679H10.6675C10.2993 8.66679 10.0009 8.36831 10.0009 8.00013Z" fill="#646A73"/>
<path d="M12.0009 11.3335C11.6327 11.3335 11.3342 11.6319 11.3342 12.0001C11.3342 12.3683 11.6327 12.6668 12.0009 12.6668H14.6675C15.0357 12.6668 15.3342 12.3683 15.3342 12.0001C15.3342 11.6319 15.0357 11.3335 14.6675 11.3335H12.0009Z" fill="#646A73"/>
<path d="M9.86659 14.1484L8.23444 10.1846H3.18136C3.13868 10.1846 3.09685 10.181 3.05616 10.174L1.66589 14.1131C1.53049 14.4968 1.10971 14.698 0.726058 14.5626C0.342408 14.4272 0.141166 14.0064 0.276572 13.6228L4.37565 2.00872C4.71323 1.05226 6.05321 1.01788 6.4394 1.95576L11.2289 13.5875C11.3838 13.9637 11.2044 14.3942 10.8282 14.5491C10.452 14.704 10.0215 14.5246 9.86659 14.1484ZM5.44412 3.40816L3.57241 8.71133H7.62778L5.44412 3.40816Z" fill="#646A73"/>
</svg>
