<svg width="16" height="16" viewBox="0 0 16 16" fill="none" xmlns="http://www.w3.org/2000/svg">
<path d="M4.66536 1.33301C5.03355 1.33301 5.33203 1.63148 5.33203 1.99967H10.6654C10.6654 1.63148 10.9638 1.33301 11.332 1.33301C11.7002 1.33301 11.9987 1.63148 11.9987 1.99967C12.2748 1.99967 12.8119 1.99967 13.3321 1.99967C14.0684 1.99967 14.6654 2.59663 14.6654 3.33301V13.333C14.6654 14.0694 14.0684 14.6663 13.332 14.6663H2.66536C1.92899 14.6663 1.33203 14.0694 1.33203 13.333L1.33203 3.33301C1.33203 2.59663 1.92896 1.99967 2.66534 1.99967C3.18554 1.99967 3.72257 1.99967 3.9987 1.99967C3.9987 1.63148 4.29717 1.33301 4.66536 1.33301ZM10.6654 3.33301H5.33203C5.33203 3.7012 5.03355 3.99967 4.66536 3.99967C4.29717 3.99967 3.9987 3.7012 3.9987 3.33301H2.66536V13.333H13.332V3.33301H11.9987C11.9987 3.7012 11.7002 3.99967 11.332 3.99967C10.9638 3.99967 10.6654 3.7012 10.6654 3.33301ZM5.9987 9.99967C5.9987 9.63148 5.70022 9.33301 5.33203 9.33301H4.66536C4.29717 9.33301 3.9987 9.63149 3.9987 9.99967V10.6663C3.9987 11.0345 4.29717 11.333 4.66536 11.333H5.33203C5.70022 11.333 5.9987 11.0345 5.9987 10.6663V9.99967ZM6.9987 6.66634C6.9987 6.29815 7.29718 5.99967 7.66536 5.99967H8.33203C8.70022 5.99967 8.9987 6.29815 8.9987 6.66634V7.33301C8.9987 7.7012 8.70022 7.99967 8.33203 7.99967H7.66536C7.29717 7.99967 6.9987 7.7012 6.9987 7.33301V6.66634ZM8.9987 9.99967C8.9987 9.63148 8.70022 9.33301 8.33203 9.33301H7.66536C7.29717 9.33301 6.9987 9.63149 6.9987 9.99967V10.6663C6.9987 11.0345 7.29718 11.333 7.66536 11.333H8.33203C8.70022 11.333 8.9987 11.0345 8.9987 10.6663V9.99967ZM9.9987 9.99967C9.9987 9.63148 10.2972 9.33301 10.6654 9.33301H11.332C11.7002 9.33301 11.9987 9.63149 11.9987 9.99967V10.6663C11.9987 11.0345 11.7002 11.333 11.332 11.333H10.6654C10.2972 11.333 9.9987 11.0345 9.9987 10.6663V9.99967ZM11.9987 6.66634C11.9987 6.29815 11.7002 5.99967 11.332 5.99967H10.6654C10.2972 5.99967 9.9987 6.29815 9.9987 6.66634V7.33301C9.9987 7.7012 10.2972 7.99967 10.6654 7.99967H11.332C11.7002 7.99967 11.9987 7.7012 11.9987 7.33301V6.66634Z" fill="#646A73"/>
</svg>
