<svg width="16" height="16" viewBox="0 0 16 16" fill="none" xmlns="http://www.w3.org/2000/svg">
<path d="M2.06497 4.99995V2.54964L1.678 2.82322C1.40742 3.01451 1.033 2.95023 0.841708 2.67965C0.650416 2.40907 0.714692 2.03465 0.985272 1.84336L2.00315 1.12375C2.53303 0.749141 3.26497 1.12807 3.26497 1.77699V4.99995C3.26497 5.33132 2.99634 5.59995 2.66497 5.59995C2.3336 5.59995 2.06497 5.33132 2.06497 4.99995Z" fill="#646A73"/>
<path d="M2.66486 7.39063C2.29667 7.39063 1.99819 7.6891 1.99819 8.05729V11.3333H0.91196C0.654697 11.3333 0.494406 11.6123 0.624034 11.8345L2.37702 14.8397C2.50565 15.0602 2.82425 15.0602 2.95287 14.8397L4.70586 11.8345C4.83549 11.6123 4.6752 11.3333 4.41794 11.3333H3.33152V8.05729C3.33152 7.6891 3.03305 7.39063 2.66486 7.39063Z" fill="#646A73"/>
<path d="M6.66486 12.724C6.29667 12.724 5.99819 13.0224 5.99819 13.3906C5.99819 13.7588 6.29667 14.0573 6.66486 14.0573H14.6649C15.033 14.0573 15.3315 13.7588 15.3315 13.3906C15.3315 13.0224 15.033 12.724 14.6649 12.724H6.66486Z" fill="#646A73"/>
<path d="M5.99819 8.05729C5.99819 7.6891 6.29667 7.39063 6.66486 7.39063H14.6649C15.033 7.39063 15.3315 7.6891 15.3315 8.05729C15.3315 8.42548 15.033 8.72396 14.6649 8.72396H6.66486C6.29667 8.72396 5.99819 8.42548 5.99819 8.05729Z" fill="#646A73"/>
<path d="M6.66486 2C6.29667 2 5.99819 2.29848 5.99819 2.66667C5.99819 3.03486 6.29667 3.33333 6.66486 3.33333H14.6649C15.033 3.33333 15.3315 3.03486 15.3315 2.66667C15.3315 2.29848 15.033 2 14.6649 2H6.66486Z" fill="#646A73"/>
</svg>
