<svg width="16" height="16" viewBox="0 0 16 16" fill="none" xmlns="http://www.w3.org/2000/svg">
<path d="M6 8.66634H10C11.8409 8.66634 14 9.95205 14 12.2663V13.333C14 14.0663 13.4 14.6663 12.6667 14.6663H3.33333C2.6 14.6663 2 14.0663 2 13.333V12.2663C2 9.95399 4.15905 8.66634 6 8.66634ZM12.6667 13.333V12.2219C12.6667 10.8209 11.2473 9.99967 10 9.99967H6C4.77998 9.99967 3.33333 10.7808 3.33333 12.2219V13.333H12.6667ZM8 7.99967C6.15905 7.99967 4.66667 6.50729 4.66667 4.66634C4.66667 2.82539 6.15905 1.33301 8 1.33301C9.84095 1.33301 11.3333 2.82539 11.3333 4.66634C11.3333 6.50729 9.84095 7.99967 8 7.99967ZM8 6.66634C9.10457 6.66634 10 5.77091 10 4.66634C10 3.56177 9.10457 2.66634 8 2.66634C6.89543 2.66634 6 3.56177 6 4.66634C6 5.77091 6.89543 6.66634 8 6.66634Z" fill="#646A73"/>
</svg>
