<svg width="16" height="16" viewBox="0 0 16 16" fill="none" xmlns="http://www.w3.org/2000/svg">
<path d="M10.8954 10.2208C10.4116 10.6037 9.52623 10.9495 8.63801 10.4657C8.09371 10.1692 7.52488 9.68643 6.94736 9.10891C6.36785 8.52939 5.88335 7.95827 5.58699 7.41164C5.10933 6.53061 5.4476 5.65304 5.82276 5.17097L5.96608 4.98682L4.849 2.38054L2.50419 3.34605C2.60371 5.18739 3.12161 7.73445 5.72171 10.3346C8.32182 12.9347 10.8689 13.4526 12.7102 13.5521L13.6762 11.2062L11.067 10.085L10.8954 10.2208ZM1.97475 2.12211L4.34134 1.14763C5.01537 0.870092 5.78735 1.18528 6.07451 1.85527L7.19159 4.46156C7.38283 4.90774 7.31646 5.42261 7.01831 5.80571L6.875 5.98986C6.69645 6.21929 6.62057 6.52057 6.75913 6.77614C6.96353 7.15316 7.34055 7.61647 7.89017 8.1661C8.43769 8.71362 8.89957 9.08985 9.2758 9.29478C9.5336 9.43521 9.83777 9.35745 10.068 9.17528L10.2396 9.03948C10.6236 8.73555 11.1434 8.66664 11.5934 8.85999L14.2026 9.98113C14.8719 10.2687 15.1864 11.0402 14.9091 11.7138L13.9342 14.0815C13.7284 14.5811 13.2418 14.9136 12.7022 14.8868C10.6247 14.7834 7.70181 14.2003 4.7789 11.2774C1.856 8.35446 1.27283 5.43155 1.16948 3.35406C1.14264 2.81443 1.47515 2.32783 1.97475 2.12211Z" fill="#646A73"/>
</svg>
