<svg width="16" height="16" viewBox="0 0 16 16" fill="none" xmlns="http://www.w3.org/2000/svg">
<path d="M8.64844 5.66788C8.94919 5.79387 9.23732 5.96415 9.50351 6.17971C11.0122 7.40146 11.2449 9.61494 10.0231 11.1237L8.03219 13.5823C6.81045 15.091 4.59696 15.3237 3.08823 14.1019C1.5795 12.8802 1.34685 10.6667 2.5686 9.15796L4.47281 6.80646L4.53349 7.38387C4.57618 7.78996 4.71535 8.16256 4.92584 8.48127L3.66132 10.0428C2.92827 10.9481 3.06786 12.2762 3.9731 13.0092C4.87833 13.7423 6.20643 13.6027 6.93947 12.6974L8.93042 10.2388C9.66347 9.33357 9.52388 8.00548 8.61864 7.27243C8.34164 7.04811 8.02504 6.90551 7.69801 6.84155L8.64844 5.66788ZM7.58846 10.1003C7.2877 9.97435 6.99957 9.80407 6.73338 9.58851C5.22465 8.36677 4.99201 6.15328 6.21375 4.64455L8.2047 2.18593C9.42645 0.6772 11.6399 0.444552 13.1487 1.6663C14.6574 2.88804 14.89 5.10153 13.6683 6.61026L11.7641 8.96176L11.7034 8.38435C11.6607 7.97826 11.5215 7.60566 11.3111 7.28695L12.5756 5.7254C13.3086 4.82016 13.169 3.49206 12.2638 2.75902C11.3586 2.02597 10.0305 2.16556 9.29742 3.0708L7.30647 5.52941C6.57342 6.43465 6.71301 7.76274 7.61825 8.49579C7.89525 8.72011 8.21185 8.86271 8.53888 8.92667L7.58846 10.1003Z" fill="#646A73"/>
</svg>
