<svg width="16" height="16" viewBox="0 0 16 16" fill="none" xmlns="http://www.w3.org/2000/svg">
<path d="M8.20252 4.8767C8.46287 4.61635 8.88507 4.61644 9.14542 4.87679C9.40577 5.13714 9.40585 5.55936 9.14549 5.8197L5.41993 9.54496C5.23429 9.73062 5.13 9.98242 5.13 10.245C5.13 10.5075 5.23429 10.7593 5.41993 10.945L5.42726 10.9523C5.61511 11.1384 5.86902 11.2425 6.13345 11.2419C6.39788 11.2413 6.6513 11.136 6.83826 10.949L11.7916 5.99563C12.0083 5.77896 12.1802 5.52172 12.2975 5.23861C12.4147 4.95551 12.4751 4.65207 12.4751 4.34563C12.4751 4.03919 12.4147 3.73576 12.2975 3.45265C12.1802 3.16954 12.0083 2.9123 11.7916 2.69563L11.7673 2.67096C11.5506 2.45427 11.2934 2.28237 11.0102 2.1651C10.7271 2.04782 10.4237 1.98746 10.1173 1.98746C9.81082 1.98746 9.50739 2.04782 9.22428 2.1651C8.94117 2.28237 8.68393 2.45427 8.46726 2.67096L3.28226 7.85596C1.84493 9.29363 1.84493 11.624 3.28226 13.0613C4.71993 14.499 7.05026 14.499 8.48759 13.0613L13.2012 8.3477C13.4615 8.08735 13.8837 8.08745 14.1441 8.3478C14.4044 8.60815 14.4045 9.03035 14.1442 9.2907L9.4306 14.0043C7.4726 15.9623 4.29759 15.9623 2.33959 14.0043C0.381594 12.046 0.381594 8.8713 2.33959 6.9133L7.52459 1.7283C8.95659 0.296297 11.2779 0.296297 12.7099 1.7283L12.7346 1.75296C14.1666 3.18463 14.1666 5.5063 12.7346 6.9383L7.78126 11.8916C7.34504 12.328 6.75375 12.5738 6.13675 12.5753C5.51974 12.5768 4.92726 12.3339 4.48893 11.8996L4.48493 11.8956L4.47693 11.888C4.04122 11.4523 3.79645 10.8613 3.79645 10.2451C3.79645 9.62895 4.04122 9.03801 4.47693 8.6023L8.20252 4.8767Z" fill="#646A73"/>
</svg>
