<svg width="16" height="16" viewBox="0 0 16 16" fill="none" xmlns="http://www.w3.org/2000/svg">
<path d="M2.66536 0.666992C1.92898 0.666992 1.33203 1.26395 1.33203 2.00033V10.667C1.33203 11.4034 1.92898 12.0003 2.66536 12.0003H9.33203C10.0684 12.0003 10.6654 11.4034 10.6654 10.667V2.00033C10.6654 1.26395 10.0684 0.666992 9.33203 0.666992H2.66536ZM9.33203 2.00033V10.667H2.66536L2.66536 2.00033H9.33203Z" fill="#646A73"/>
<path d="M15.3197 11.009C15.3278 10.9802 15.3321 10.9498 15.3321 10.9181V7.66699C15.3321 7.34665 14.9243 7.21072 14.7321 7.46699L12.6421 10.2537C12.4968 10.4474 12.6001 10.7265 12.8365 10.7791L13.9788 11.0329C13.7966 12.7017 12.3826 14.0003 10.6654 14.0003H8.9987C8.63051 14.0003 8.33203 14.2988 8.33203 14.667C8.33203 15.0352 8.63051 15.3337 8.9987 15.3337H10.6654C13.1277 15.3337 15.1446 13.4266 15.3197 11.009Z" fill="#646A73"/>
</svg>
