<svg width="16" height="16" viewBox="0 0 16 16" fill="none" xmlns="http://www.w3.org/2000/svg">
<path d="M13.332 2.66634H2.66536V13.333H7.33203V14.6663H2.66536C1.92899 14.6663 1.33203 14.0694 1.33203 13.333V2.66634C1.33203 1.92996 1.92898 1.33301 2.66536 1.33301H13.332C14.0684 1.33301 14.6654 1.92996 14.6654 2.66634V6.66634H13.332V2.66634Z" fill="#646A73"/>
<path d="M4.66536 4.33301C4.29717 4.33301 3.9987 4.63148 3.9987 4.99967C3.9987 5.36786 4.29718 5.66634 4.66536 5.66634H9.9987C10.3669 5.66634 10.6654 5.36786 10.6654 4.99967C10.6654 4.63148 10.3669 4.33301 9.9987 4.33301H4.66536Z" fill="#646A73"/>
<path d="M3.9987 7.66634C3.9987 7.29815 4.29717 6.99967 4.66536 6.99967H6.9987C7.36689 6.99967 7.66536 7.29815 7.66536 7.66634C7.66536 8.03453 7.36689 8.33301 6.9987 8.33301H4.66536C4.29717 8.33301 3.9987 8.03453 3.9987 7.66634Z" fill="#646A73"/>
<path d="M4.66536 9.66634C4.29717 9.66634 3.9987 9.96482 3.9987 10.333C3.9987 10.7012 4.29717 10.9997 4.66536 10.9997H6.33203C6.70022 10.9997 6.9987 10.7012 6.9987 10.333C6.9987 9.96482 6.70022 9.66634 6.33203 9.66634H4.66536Z" fill="#646A73"/>
<path d="M13.958 12.7197C14.4012 12.1538 14.6654 11.4409 14.6654 10.6663C14.6654 8.82539 13.173 7.33301 11.332 7.33301C9.49108 7.33301 7.9987 8.82539 7.9987 10.6663C7.9987 12.5073 9.49108 13.9997 11.332 13.9997C11.9165 13.9997 12.4658 13.8492 12.9434 13.585L14.0752 14.887C14.3168 15.1649 14.7379 15.1943 15.0158 14.9527C15.2936 14.7112 15.3231 14.2901 15.0815 14.0122L13.958 12.7197ZM11.332 12.6663C10.2275 12.6663 9.33203 11.7709 9.33203 10.6663C9.33203 9.56177 10.2275 8.66634 11.332 8.66634C12.4366 8.66634 13.332 9.56177 13.332 10.6663C13.332 11.7709 12.4366 12.6663 11.332 12.6663Z" fill="#646A73"/>
</svg>
