<svg width="16" height="16" viewBox="0 0 16 16" fill="none" xmlns="http://www.w3.org/2000/svg">
<path d="M5.85044 1.42649C6.21505 1.47773 6.46908 1.81485 6.41784 2.17945L6.16192 4.00039H10.8155L11.0975 1.99389C11.1487 1.62928 11.4858 1.37525 11.8504 1.42649C12.215 1.47773 12.4691 1.81485 12.4178 2.17945L12.1619 4.00039H14.668C15.0362 4.00039 15.3346 4.29887 15.3346 4.66706C15.3346 5.03525 15.0362 5.33373 14.668 5.33373H11.9745L11.3187 10.0004H13.3346C13.7028 10.0004 14.0013 10.2989 14.0013 10.6671C14.0013 11.0353 13.7028 11.3337 13.3346 11.3337H11.1313L10.7478 14.0627C10.6965 14.4273 10.3594 14.6813 9.9948 14.6301C9.63019 14.5788 9.37616 14.2417 9.4274 13.8771L9.78485 11.3337H5.13129L4.74776 14.0627C4.69652 14.4273 4.35941 14.6813 3.9948 14.6301C3.63019 14.5788 3.37616 14.2417 3.4274 13.8771L3.78485 11.3337H1.33464C0.966446 11.3337 0.667969 11.0353 0.667969 10.6671C0.667969 10.2989 0.966446 10.0004 1.33464 10.0004H3.97224L4.6281 5.33373H2.66797C2.29978 5.33373 2.0013 5.03525 2.0013 4.66706C2.0013 4.29887 2.29978 4.00039 2.66797 4.00039H4.81548L5.09748 1.99389C5.14872 1.62928 5.48583 1.37525 5.85044 1.42649ZM9.97224 10.0004L10.6281 5.33373H5.97453L5.31868 10.0004H9.97224Z" fill="#646A73"/>
</svg>
