<svg width="16" height="16" viewBox="0 0 16 16" fill="none" xmlns="http://www.w3.org/2000/svg">
<path d="M7.33464 4.33301C7.33464 2.67373 8.68674 1.33301 10.3412 1.33301C11.9884 1.33301 13.3346 2.6679 13.3346 4.31999V4.33301C13.3346 4.7012 13.0362 4.99967 12.668 4.99967C12.2998 4.99967 12.0013 4.7012 12.0013 4.33301V4.31999C12.0013 3.40913 11.2569 2.66634 10.3412 2.66634C9.41826 2.66634 8.66797 3.41496 8.66797 4.33301V6.66634H11.3346C11.7028 6.66634 12.0013 6.96482 12.0013 7.33301C12.0013 7.7012 11.7028 7.99967 11.3346 7.99967H8.66797V11.6663C8.66797 13.3256 7.31587 14.6663 5.66144 14.6663C4.0142 14.6663 2.66797 13.3314 2.66797 11.6794V11.6663C2.66797 11.2982 2.96645 10.9997 3.33464 10.9997C3.70283 10.9997 4.0013 11.2982 4.0013 11.6663V11.6794C4.0013 12.5902 4.74573 13.333 5.66144 13.333C6.58434 13.333 7.33464 12.5844 7.33464 11.6663L7.33464 7.99967H5.33464C4.96645 7.99967 4.66797 7.7012 4.66797 7.33301C4.66797 6.96482 4.96645 6.66634 5.33464 6.66634H7.33464V4.33301Z" fill="#646A73"/>
</svg>
