<svg width="16" height="16" viewBox="0 0 16 16" fill="none" xmlns="http://www.w3.org/2000/svg">
<path d="M7.9987 2.66634C7.9987 1.92996 8.59565 1.33301 9.33203 1.33301H13.332C14.0684 1.33301 14.6654 1.92996 14.6654 2.66634V6.66634C14.6654 7.40272 14.0684 7.99967 13.332 7.99967H9.33203C8.59565 7.99967 7.9987 7.40272 7.9987 6.66634V2.66634ZM9.33203 2.66634V6.66634H13.332V2.66634H9.33203Z" fill="#646A73"/>
<path d="M1.33203 9.33301C1.33203 8.59663 1.92898 7.99967 2.66536 7.99967H6.66536C7.40174 7.99967 7.9987 8.59663 7.9987 9.33301V13.333C7.9987 14.0694 7.40174 14.6663 6.66536 14.6663H2.66536C1.92898 14.6663 1.33203 14.0694 1.33203 13.333V9.33301ZM2.66536 9.33301L2.66536 13.333H6.66536V9.33301H2.66536Z" fill="#646A73"/>
<path d="M13.9987 9.99475L13.9987 9.99967V11.333C13.9987 13.174 12.5063 14.6663 10.6654 14.6663H9.9987C9.63051 14.6663 9.33203 14.3679 9.33203 13.9997C9.33203 13.6315 9.63051 13.333 9.9987 13.333H10.6654C11.7078 13.333 12.564 12.5355 12.657 11.5173L11.688 11.4096C11.4102 11.3787 11.2915 11.0402 11.4891 10.8426L13.4296 8.90205C13.6396 8.69206 13.9987 8.84079 13.9987 9.13775V9.99475Z" fill="#646A73"/>
<path d="M1.99866 6.01276C1.99858 6.00841 1.99854 6.00405 1.99854 5.99967L1.99854 4.66634C1.99854 2.82539 3.49092 1.33301 5.33187 1.33301H5.99854C6.36673 1.33301 6.6652 1.63148 6.6652 1.99967C6.6652 2.36786 6.36673 2.66634 5.99854 2.66634H5.33187C4.29448 2.66634 3.44156 3.45617 3.34165 4.46728L4.58173 4.5913C4.86975 4.62011 4.98669 4.97711 4.77154 5.17075L2.55498 7.16565C2.34048 7.35871 1.99866 7.20647 1.99866 6.91788L1.99866 6.01276Z" fill="#646A73"/>
</svg>
