<svg width="16" height="16" viewBox="0 0 16 16" fill="none" xmlns="http://www.w3.org/2000/svg">
<path d="M7.6407 15.2074C7.8576 15.3528 8.1408 15.353 8.35785 15.2078C12.415 12.494 14.4436 9.78027 14.4436 7.06652C14.4436 3.50735 11.5583 0.62207 7.99913 0.62207C4.43996 0.62207 1.55469 3.50735 1.55469 7.06652C1.55469 9.77363 3.58336 12.4873 7.6407 15.2074ZM7.99913 1.91096C10.8465 1.91096 13.1547 4.21918 13.1547 7.06652C13.1547 9.1885 11.4913 11.4827 7.99996 13.8928C4.50763 11.477 2.84358 9.18223 2.84358 7.06652C2.84358 4.21918 5.1518 1.91096 7.99913 1.91096ZM7.99913 9.64429C9.4228 9.64429 10.5769 8.49018 10.5769 7.06652C10.5769 5.64285 9.4228 4.48874 7.99913 4.48874C6.57546 4.48874 5.42135 5.64285 5.42135 7.06652C5.42135 8.49018 6.57546 9.64429 7.99913 9.64429ZM9.28802 7.06652C9.28802 7.77835 8.71097 8.3554 7.99913 8.3554C7.2873 8.3554 6.71024 7.77835 6.71024 7.06652C6.71024 6.35468 7.2873 5.77763 7.99913 5.77763C8.71097 5.77763 9.28802 6.35468 9.28802 7.06652Z" fill="#646A73"/>
</svg>
