<svg width="16" height="16" viewBox="0 0 16 16" fill="none" xmlns="http://www.w3.org/2000/svg">
<path d="M5.66536 3.00033C4.74536 3.00033 3.9987 3.74666 3.9987 4.66699C3.9987 5.58733 4.74536 6.33366 5.66536 6.33366C6.58536 6.33366 7.33203 5.58733 7.33203 4.66699C7.33203 3.74666 6.58536 3.00033 5.66536 3.00033ZM2.66536 4.66699C2.66536 3.00999 4.0087 1.66699 5.66536 1.66699C7.32203 1.66699 8.66536 3.00999 8.66536 4.66699C8.66536 6.32399 7.32203 7.66699 5.66536 7.66699C4.0087 7.66699 2.66536 6.32399 2.66536 4.66699ZM3.8887 9.66699C2.67536 9.66699 1.66536 10.666 1.66536 11.9337V13.0003H9.66536V11.9337C9.66536 10.666 8.65536 9.66699 7.44203 9.66699H3.8887ZM0.332031 11.9337C0.332031 9.94532 1.92536 8.33366 3.8887 8.33366H7.44203C9.40536 8.33366 10.9987 9.94532 10.9987 11.9337V13.0003C10.9987 13.7337 10.3987 14.3337 9.66536 14.3337H1.66536C0.932031 14.3337 0.332031 13.7337 0.332031 13.0003V11.9337ZM14.9987 13.667H12.242V13.3943V12.3337H14.332V11.9337C14.332 11.2657 13.7687 10.667 12.9987 10.667H12.1254C11.9987 10.1743 11.772 9.72233 11.4687 9.33366H12.9987C14.472 9.33366 15.6654 10.4977 15.6654 11.9337L15.6654 13.0003C15.6819 13.3573 15.3383 13.6797 14.9987 13.667ZM10.9987 6.33366C10.9987 5.96533 11.2987 5.66699 11.6654 5.66699C12.032 5.66699 12.332 5.96533 12.332 6.33366C12.332 6.70199 12.032 7.00033 11.6654 7.00033C11.2987 7.00033 10.9987 6.70199 10.9987 6.33366ZM11.6654 4.33366C10.562 4.33366 9.66536 5.22899 9.66536 6.33366C9.66536 7.43832 10.562 8.33366 11.6654 8.33366C12.7687 8.33366 13.6654 7.43832 13.6654 6.33366C13.6654 5.22899 12.7687 4.33366 11.6654 4.33366Z" fill="#646A73"/>
</svg>
