<svg width="16" height="16" viewBox="0 0 16 16" fill="none" xmlns="http://www.w3.org/2000/svg">
<path d="M5.17151 7.7721C4.91219 7.51105 4.91239 7.08883 5.17257 6.82864C5.43276 6.56845 5.85499 6.56825 6.11518 6.82844L8.00112 8.71437L9.88683 6.82866C10.1471 6.56838 10.5691 6.56859 10.8294 6.82887C11.0897 7.08915 11.0899 7.51118 10.8305 7.77232C10.043 8.56499 9.25976 9.36275 8.46225 10.1452C8.20596 10.3966 7.79627 10.3966 7.53998 10.1452C6.74239 9.36267 5.95904 8.56484 5.17151 7.7721Z" fill="#646A73"/>
<path d="M8.0013 15.3337C3.95121 15.3337 0.667969 12.0504 0.667969 8.00033C0.667969 3.95024 3.95121 0.666992 8.0013 0.666992C12.0514 0.666992 15.3346 3.95024 15.3346 8.00033C15.3346 12.0504 12.0514 15.3337 8.0013 15.3337ZM8.0013 14.0003C11.315 14.0003 14.0013 11.314 14.0013 8.00033C14.0013 4.68662 11.315 2.00033 8.0013 2.00033C4.68759 2.00033 2.0013 4.68662 2.0013 8.00033C2.0013 11.314 4.68759 14.0003 8.0013 14.0003Z" fill="#646A73"/>
</svg>
