<svg width="16" height="16" viewBox="0 0 16 16" fill="none" xmlns="http://www.w3.org/2000/svg">
<path d="M4.4701 2.47108C4.73045 2.21073 4.73045 1.78862 4.4701 1.52827C4.20975 1.26792 3.78764 1.26792 3.52729 1.52827L1.9987 3.05687L1.4701 2.52827C1.20975 2.26792 0.787643 2.26792 0.527293 2.52827C0.266944 2.78862 0.266944 3.21073 0.527293 3.47108L1.52729 4.47108C1.78764 4.73143 2.20975 4.73143 2.4701 4.47108L4.4701 2.47108Z" fill="#646A73"/>
<path d="M6.66536 1.99967C6.29718 1.99967 5.9987 2.29815 5.9987 2.66634C5.9987 3.03453 6.29717 3.33301 6.66536 3.33301H14.6654C15.0336 3.33301 15.332 3.03453 15.332 2.66634C15.332 2.29815 15.0336 1.99967 14.6654 1.99967H6.66536Z" fill="#646A73"/>
<path d="M6.66536 7.33301C6.29718 7.33301 5.9987 7.63148 5.9987 7.99967C5.9987 8.36786 6.29717 8.66634 6.66536 8.66634H14.6654C15.0336 8.66634 15.332 8.36786 15.332 7.99967C15.332 7.63148 15.0336 7.33301 14.6654 7.33301H6.66536Z" fill="#646A73"/>
<path d="M6.66536 12.6663C6.29718 12.6663 5.9987 12.9648 5.9987 13.333C5.9987 13.7012 6.29717 13.9997 6.66536 13.9997H14.6654C15.0336 13.9997 15.332 13.7012 15.332 13.333C15.332 12.9648 15.0336 12.6663 14.6654 12.6663H6.66536Z" fill="#646A73"/>
<path d="M4.4701 12.4711C4.73045 12.2107 4.73045 11.7886 4.4701 11.5283C4.20975 11.2679 3.78764 11.2679 3.52729 11.5283L1.9987 13.0569L1.4701 12.5283C1.20975 12.2679 0.787643 12.2679 0.527293 12.5283C0.266944 12.7886 0.266944 13.2107 0.527293 13.4711L1.52729 14.4711C1.78764 14.7314 2.20975 14.7314 2.4701 14.4711L4.4701 12.4711Z" fill="#646A73"/>
<path d="M4.4701 6.52827C4.73045 6.78862 4.73045 7.21073 4.4701 7.47108L2.4701 9.47108C2.20975 9.73143 1.78764 9.73143 1.52729 9.47108L0.527293 8.47108C0.266944 8.21073 0.266944 7.78862 0.527293 7.52827C0.787643 7.26792 1.20975 7.26792 1.4701 7.52827L1.9987 8.05687L3.52729 6.52827C3.78764 6.26792 4.20975 6.26792 4.4701 6.52827Z" fill="#646A73"/>
</svg>
