<svg width="16" height="16" viewBox="0 0 16 16" fill="none" xmlns="http://www.w3.org/2000/svg">
<path d="M11.4701 6.80441C11.7305 6.54406 11.7305 6.12195 11.4701 5.8616C11.2098 5.60125 10.7876 5.60125 10.5273 5.8616L7.33203 9.05687L5.80344 7.52827C5.54309 7.26792 5.12098 7.26792 4.86063 7.52827C4.60028 7.78862 4.60028 8.21073 4.86063 8.47108L6.86063 10.4711C7.12098 10.7314 7.54309 10.7314 7.80344 10.4711L11.4701 6.80441Z" fill="#646A73"/>
<path d="M1.33203 2.66634C1.33203 1.92996 1.92898 1.33301 2.66536 1.33301H13.332C14.0684 1.33301 14.6654 1.92996 14.6654 2.66634V13.333C14.6654 14.0694 14.0684 14.6663 13.332 14.6663H2.66536C1.92899 14.6663 1.33203 14.0694 1.33203 13.333V2.66634ZM2.66536 2.66634V13.333H13.332V2.66634H2.66536Z" fill="#646A73"/>
</svg>
