<svg width="16" height="16" viewBox="0 0 16 16" fill="none" xmlns="http://www.w3.org/2000/svg">
<path d="M7.99927 2.45821L9.62787 4.98019C9.89589 5.39524 10.308 5.69639 10.7849 5.82561L13.6849 6.61146L11.7899 8.97393C11.4832 9.35627 11.3276 9.83792 11.3526 10.3274L11.5071 13.3505L8.71908 12.275C8.25584 12.0963 7.7427 12.0963 7.27947 12.275L4.49143 13.3505L4.64592 10.3274C4.67094 9.83792 4.51533 9.35627 4.20864 8.97393L2.3136 6.61146L5.21364 5.82561C5.6905 5.69639 6.10266 5.39523 6.37068 4.98019L7.99927 2.45821ZM8.83934 1.30127C8.44541 0.691244 7.55314 0.691243 7.15921 1.30127L5.25059 4.25688C5.16125 4.39523 5.02387 4.49561 4.86491 4.53869L1.47347 5.4577C0.777834 5.64621 0.503999 6.4864 0.954966 7.04861L3.16857 9.80821C3.2708 9.93566 3.32267 10.0962 3.31433 10.2594L3.13362 13.7953C3.09667 14.5184 3.81665 15.0399 4.49222 14.7793L7.75934 13.519C7.91375 13.4594 8.0848 13.4594 8.23921 13.519L11.5063 14.7793C12.1819 15.0399 12.9019 14.5184 12.8649 13.7953L12.6842 10.2594C12.6759 10.0962 12.7278 9.93566 12.83 9.80821L15.0436 7.04861C15.4945 6.4864 15.2207 5.64621 14.5251 5.4577L11.1336 4.53869C10.9747 4.49561 10.8373 4.39523 10.748 4.25688L8.83934 1.30127Z" fill="#646A73"/>
</svg>
