<svg width="16" height="16" viewBox="0 0 16 16" fill="none" xmlns="http://www.w3.org/2000/svg">
<path d="M11 4.33333C11.9932 4.33333 12.2951 4.33979 12.5202 4.38457C13.5781 4.59499 14.405 5.42192 14.6154 6.47976C14.6602 6.70489 14.6667 7.00678 14.6667 8C14.6667 8.99322 14.6602 9.29511 14.6154 9.52024C14.405 10.5781 13.5781 11.405 12.5202 11.6154C12.2951 11.6602 11.9932 11.6667 11 11.6667H5C4.00678 11.6667 3.70489 11.6602 3.47976 11.6154C2.42192 11.405 1.59499 10.5781 1.38457 9.52024C1.33979 9.29511 1.33333 8.99322 1.33333 8C1.33333 7.00678 1.33979 6.70489 1.38457 6.47976C1.59499 5.42192 2.42192 4.59499 3.47976 4.38457C3.70489 4.33979 4.00678 4.33333 5 4.33333H11ZM0.0768589 6.21964C0 6.60603 0 7.07069 0 8C0 8.92931 0 9.39397 0.0768589 9.78036C0.392486 11.3671 1.63288 12.6075 3.21964 12.9231C3.60603 13 4.07069 13 5 13H11C11.9293 13 12.394 13 12.7804 12.9231C14.3671 12.6075 15.6075 11.3671 15.9231 9.78036C16 9.39397 16 8.92931 16 8C16 7.07069 16 6.60603 15.9231 6.21964C15.6075 4.63288 14.3671 3.39249 12.7804 3.07686C12.394 3 11.9293 3 11 3H5C4.07069 3 3.60603 3 3.21964 3.07686C1.63288 3.39249 0.392486 4.63288 0.0768589 6.21964Z" fill="#646A73"/>
<path d="M11.2121 5.33333H9.38545L7.06661 10.6667H8.89325L11.2121 5.33333Z" fill="#646A73"/>
<path d="M6.46838 5.33333H8.29502L5.97618 10.6667H5C4.6233 10.6667 4.36105 10.6667 4.15618 10.6514L6.46838 5.33333Z" fill="#646A73"/>
<path d="M5.37795 5.33333H5C4.38002 5.33333 4.07003 5.33333 3.8157 5.40148C3.12551 5.58642 2.58642 6.12551 2.40148 6.8157C2.33333 7.07003 2.33333 7.38002 2.33333 8C2.33333 8.61998 2.33333 8.92997 2.40148 9.1843C2.52758 9.65492 2.81834 10.0553 3.20939 10.321L5.37795 5.33333Z" fill="#646A73"/>
</svg>
