<svg width="16" height="16" viewBox="0 0 16 16" fill="none" xmlns="http://www.w3.org/2000/svg">
<path d="M0.667969 3.33333C0.667969 2.59695 1.26492 2 2.0013 2H4.0013C4.36949 2 4.66797 2.29848 4.66797 2.66667C4.66797 3.03486 4.36949 3.33333 4.0013 3.33333H2.0013V5.33333C2.0013 5.70152 1.70283 6 1.33464 6C0.966446 6 0.667969 5.70152 0.667969 5.33333V3.33333Z" fill="#646A73"/>
<path d="M15.3346 3.33333C15.3346 2.59695 14.7377 2 14.0013 2H12.0013C11.6331 2 11.3346 2.29848 11.3346 2.66667C11.3346 3.03486 11.6331 3.33333 12.0013 3.33333H14.0013V5.33333C14.0013 5.70152 14.2998 6 14.668 6C15.0362 6 15.3346 5.70152 15.3346 5.33333V3.33333Z" fill="#646A73"/>
<path d="M14.0013 14C14.7377 14 15.3346 13.403 15.3346 12.6667V10.6667C15.3346 10.2985 15.0362 10 14.668 10C14.2998 10 14.0013 10.2985 14.0013 10.6667V12.6667H12.0013C11.6331 12.6667 11.3346 12.9651 11.3346 13.3333C11.3346 13.7015 11.6331 14 12.0013 14H14.0013Z" fill="#646A73"/>
<path d="M0.667969 12.6667C0.667969 13.403 1.26492 14 2.0013 14H4.0013C4.36949 14 4.66797 13.7015 4.66797 13.3333C4.66797 12.9651 4.36949 12.6667 4.0013 12.6667H2.0013V10.6667C2.0013 10.2985 1.70283 10 1.33464 10C0.966446 10 0.667969 10.2985 0.667969 10.6667V12.6667Z" fill="#646A73"/>
<path d="M6.0013 5.33333C6.0013 4.96514 6.29978 4.66667 6.66797 4.66667C7.03616 4.66667 7.33464 4.96514 7.33464 5.33333V10.6667C7.33464 11.0349 7.03616 11.3333 6.66797 11.3333C6.29978 11.3333 6.0013 11.0349 6.0013 10.6667V5.33333Z" fill="#646A73"/>
<path d="M4.0013 4.66667C3.63311 4.66667 3.33464 4.96514 3.33464 5.33333V10.6667C3.33464 11.0349 3.63311 11.3333 4.0013 11.3333C4.36949 11.3333 4.66797 11.0349 4.66797 10.6667V5.33333C4.66797 4.96514 4.36949 4.66667 4.0013 4.66667Z" fill="#646A73"/>
<path d="M11.3346 5.33333C11.3346 4.96514 11.6331 4.66667 12.0013 4.66667C12.3695 4.66667 12.668 4.96514 12.668 5.33333V10.6667C12.668 11.0349 12.3695 11.3333 12.0013 11.3333C11.6331 11.3333 11.3346 11.0349 11.3346 10.6667V5.33333Z" fill="#646A73"/>
<path d="M9.33463 4.66667C8.96644 4.66667 8.66797 4.96514 8.66797 5.33333V10.6667C8.66797 11.0349 8.96644 11.3333 9.33463 11.3333C9.70283 11.3333 10.0013 11.0349 10.0013 10.6667V5.33333C10.0013 4.96514 9.70283 4.66667 9.33463 4.66667Z" fill="#646A73"/>
</svg>
