<svg width="16" height="16" viewBox="0 0 16 16" fill="none" xmlns="http://www.w3.org/2000/svg">
<path d="M3.7067 6.80966C3.37081 6.63426 3.24871 6.21437 3.43817 5.8862C3.61662 5.57713 4.00695 5.46363 4.32331 5.62882L7.97751 7.53696L11.6316 5.62889C11.9479 5.4637 12.3383 5.57721 12.5167 5.88628C12.7062 6.21444 12.5841 6.63434 12.2482 6.80974L8.32324 8.85924C8.21271 8.91696 8.09316 8.94065 7.97676 8.93387C7.86079 8.94039 7.74173 8.91665 7.63164 8.85916L3.7067 6.80966Z" fill="#646A73"/>
<path d="M14.007 2C14.7434 2 15.3346 2.59695 15.3346 3.33333V12.6667C15.3346 13.4031 14.7428 14.0001 14.0065 14.0001H1.99558C1.2592 14.0001 0.667969 13.4031 0.667969 12.6667V3.33339C0.667969 2.59701 1.25976 2.00006 1.99614 2.00006L14.007 2ZM14.0013 3.33333L2.0013 3.33339V12.6667L14.0013 12.6667V3.33333Z" fill="#646A73"/>
</svg>
