<svg width="16" height="16" viewBox="0 0 16 16" fill="none" xmlns="http://www.w3.org/2000/svg">
<path d="M10.5133 4.97503C10.6838 4.69088 10.5917 4.32233 10.3075 4.15184C10.0234 3.98135 9.6548 4.07349 9.48431 4.35764L8.09498 6.6732C8.06364 6.66868 8.0316 6.66634 7.99902 6.66634C7.96626 6.66634 7.93406 6.66871 7.90257 6.67327L6.51319 4.35764C6.3427 4.07349 5.97414 3.98135 5.68999 4.15184C5.40585 4.32233 5.31371 4.69089 5.4842 4.97504L6.69898 6.99967H5.26536C4.93399 6.99967 4.66536 7.2683 4.66536 7.59967C4.66536 7.93105 4.93399 8.19967 5.26536 8.19967H7.33265L7.33247 9.33301H5.26536C4.93399 9.33301 4.66536 9.60164 4.66536 9.93301C4.66536 10.2644 4.93399 10.533 5.26536 10.533H7.33228L7.33205 12C7.33199 12.368 7.6303 12.6663 7.99829 12.6663C8.3662 12.6663 8.66447 12.3681 8.66453 12.0002L8.66476 10.533H10.732C11.0634 10.533 11.332 10.2644 11.332 9.93301C11.332 9.60164 11.0634 9.33301 10.732 9.33301H8.66495L8.66512 8.19967H10.732C11.0634 8.19967 11.332 7.93105 11.332 7.59967C11.332 7.2683 11.0634 6.99967 10.732 6.99967H9.29852L10.5133 4.97503Z" fill="#646A73"/>
<path d="M15.6654 7.99967C15.6654 12.2339 12.2329 15.6663 7.9987 15.6663C3.76452 15.6663 0.332031 12.2339 0.332031 7.99967C0.332031 3.76549 3.76452 0.333008 7.9987 0.333008C12.2329 0.333008 15.6654 3.76549 15.6654 7.99967ZM1.66536 7.99967C1.66536 11.4975 4.50089 14.333 7.9987 14.333C11.4965 14.333 14.332 11.4975 14.332 7.99967C14.332 4.50187 11.4965 1.66634 7.9987 1.66634C4.50089 1.66634 1.66536 4.50187 1.66536 7.99967Z" fill="#646A73"/>
</svg>
