<svg width="16" height="16" viewBox="0 0 16 16" fill="none" xmlns="http://www.w3.org/2000/svg">
<path d="M1.33203 2.66634C1.33203 1.92996 1.92898 1.33301 2.66536 1.33301H13.332C14.0684 1.33301 14.6654 1.92996 14.6654 2.66634V13.333C14.6654 14.0694 14.0684 14.6663 13.332 14.6663H2.66536C1.92899 14.6663 1.33203 14.0694 1.33203 13.333V2.66634ZM2.66536 2.66634V13.333H13.332V2.66634H2.66536Z" fill="#646A73"/>
<path d="M8.33203 4.66634C7.96384 4.66634 7.66536 4.96482 7.66536 5.33301C7.66536 5.7012 7.96384 5.99967 8.33203 5.99967H11.332C11.7002 5.99967 11.9987 5.7012 11.9987 5.33301C11.9987 4.96482 11.7002 4.66634 11.332 4.66634H8.33203Z" fill="#646A73"/>
<path d="M3.9987 5.33301C3.9987 4.96482 4.29718 4.66634 4.66536 4.66634H5.9987C6.36689 4.66634 6.66536 4.96482 6.66536 5.33301C6.66536 5.7012 6.36689 5.99967 5.9987 5.99967H4.66536C4.29717 5.99967 3.9987 5.7012 3.9987 5.33301Z" fill="#646A73"/>
<path d="M8.33203 7.33301C7.96384 7.33301 7.66536 7.63148 7.66536 7.99967C7.66536 8.36786 7.96384 8.66634 8.33203 8.66634H11.332C11.7002 8.66634 11.9987 8.36786 11.9987 7.99967C11.9987 7.63148 11.7002 7.33301 11.332 7.33301H8.33203Z" fill="#646A73"/>
<path d="M3.9987 7.99967C3.9987 7.63148 4.29718 7.33301 4.66536 7.33301H5.9987C6.36689 7.33301 6.66536 7.63148 6.66536 7.99967C6.66536 8.36786 6.36689 8.66634 5.9987 8.66634H4.66536C4.29717 8.66634 3.9987 8.36786 3.9987 7.99967Z" fill="#646A73"/>
<path d="M8.33203 9.99967C7.96384 9.99967 7.66536 10.2982 7.66536 10.6663C7.66536 11.0345 7.96384 11.333 8.33203 11.333H11.332C11.7002 11.333 11.9987 11.0345 11.9987 10.6663C11.9987 10.2982 11.7002 9.99967 11.332 9.99967H8.33203Z" fill="#646A73"/>
<path d="M3.9987 10.6663C3.9987 10.2982 4.29718 9.99967 4.66536 9.99967H5.9987C6.36689 9.99967 6.66536 10.2982 6.66536 10.6663C6.66536 11.0345 6.36689 11.333 5.9987 11.333H4.66536C4.29717 11.333 3.9987 11.0345 3.9987 10.6663Z" fill="#646A73"/>
</svg>
