<svg width="16" height="16" viewBox="0 0 16 16" fill="none" xmlns="http://www.w3.org/2000/svg">
<path d="M14.0013 4.08921H2.0013L2.0013 11.2003H8.44287L9.25171 13.3337H2.0013C1.26492 13.3337 0.667969 12.6969 0.667969 11.9114V4.08921C0.667969 3.30374 1.26492 2.66699 2.0013 2.66699H14.0013C14.7377 2.66699 15.3346 3.30374 15.3346 4.08921V9.27944L14.0013 8.67248V4.08921Z" fill="#646A73"/>
<path d="M15.4491 12.1072C15.7262 12.0412 15.9307 11.8065 15.9582 11.5231C15.9857 11.2396 15.8301 10.97 15.5708 10.852L9.99329 8.31296C9.74742 8.20104 9.45831 8.24856 9.2612 8.4333C9.06409 8.61803 8.99795 8.90346 9.09372 9.15607L11.2663 14.8863C11.3673 15.1526 11.6263 15.3253 11.9109 15.3163C12.1956 15.3072 12.443 15.1183 12.5268 14.8461L13.2054 12.6417L15.4491 12.1072Z" fill="#646A73"/>
</svg>
